<?xml version="1.0" encoding="utf-8"?>
<!-- Generator: Adobe Illustrator 24.0.1, SVG Export Plug-In . SVG Version: 6.00 Build 0)  -->
<svg version="1.1" id="Layer_1" xmlns="http://www.w3.org/2000/svg" xmlns:xlink="http://www.w3.org/1999/xlink" x="0px" y="0px"
	 viewBox="0 0 267.6 99.2" style="enable-background:new 0 0 267.6 99.2;" xml:space="preserve">
<style type="text/css">
	.st0{fill:#9A253B;}
	.st1{fill:none;}
</style>
<path d="M97.3,34.1v33.3h-6.9v-10c0-5.2,0.1-10.9,0.4-16.9c-1.1,4.3-2.2,8.2-3.4,11.7l-5.2,15.2h-5.7l-5.4-14.9
	c-1.2-3.3-2.3-7.2-3.4-11.8c0.3,6.6,0.4,11.9,0.4,15.9v10.8h-6.9V34.1h10.3l5,14.5c1.1,3.2,2,6.7,2.8,10.5c0.7-3.4,1.6-6.9,2.8-10.6
	L87,34.1H97.3z"/>
<path d="M116.7,55.5c-0.5,0.3-1,0.5-1.4,0.7c-0.6,0.2-1.7,0.4-3.2,0.6c-1.6,0.2-2.7,0.5-3.4,0.9c-1,0.5-1.5,1.4-1.5,2.7
	c0,1.1,0.4,1.9,1.1,2.5c0.6,0.5,1.5,0.8,2.6,0.8c1.9,0,3.5-0.7,4.7-2c0.5-0.6,0.9-1.2,1-1.9c0.1-0.4,0.1-0.9,0.1-1.5V55.5z
	 M124,67.3h-6.8c-0.3-0.9-0.4-1.7-0.4-2.3c-2,2-4.7,3-8,3c-2.6,0-4.6-0.6-6-1.7c-1.6-1.3-2.5-3.2-2.5-5.6c0-3,1.4-5.1,4.2-6.3
	c1.1-0.5,3.2-0.9,6.3-1.3c2.8-0.4,4.5-0.7,5.1-1.1c0.5-0.3,0.8-0.9,0.8-1.8c0-2.1-1.4-3.2-4.3-3.2c-1.8,0-3.1,0.4-3.8,1.2
	c-0.5,0.5-0.8,1.3-0.9,2.4h-6.3c0.2-2.5,1.2-4.5,2.9-5.9c1.9-1.5,4.6-2.2,8.3-2.2c3.8,0,6.7,0.8,8.5,2.3c1.1,0.9,1.8,2.1,2,3.6
	c0.1,0.6,0.1,1.4,0.1,2.5c0,0.3,0,1.9-0.1,4.9c0,2.9,0,4.5,0,5c0,2.1,0.1,3.6,0.3,4.6C123.5,66,123.7,66.6,124,67.3"/>
<path d="M149.6,58c-0.3,2.4-1.1,4.4-2.5,6c-2.2,2.6-5.2,3.9-9.1,3.9c-4,0-7.2-1.3-9.4-4c-1.9-2.3-2.9-5.1-2.9-8.5
	c0-4.1,1.3-7.4,3.8-9.8c2.2-2.1,5.1-3.1,8.6-3.1c4.1,0,7.2,1.3,9.2,3.8c1.2,1.5,1.9,3.2,2.1,5.3H143c-0.2-1-0.6-1.9-1.1-2.5
	c-0.9-1.1-2.1-1.6-3.7-1.6c-2.1,0-3.6,0.9-4.6,2.6c-0.8,1.3-1.2,3.1-1.2,5.2c0,2.2,0.4,3.9,1.2,5.2c1,1.6,2.5,2.4,4.4,2.4
	c2.9,0,4.6-1.6,5.1-4.9H149.6z"/>
<polygon points="178.6,34 178.6,40.2 160.9,40.2 160.9,47.2 177.2,47.2 177.2,53 160.9,53 160.9,61.1 179,61.1 179,67.3 153.7,67.3 
	153.7,34 "/>
<path d="M218,43.1l-7.7,24.2h-6.8l-2.8-10.5c-0.5-1.9-1-4.4-1.5-7.3c-0.5,3-1,5.4-1.5,7.3L195,67.3h-6.9l-7.7-24.2h7l2.5,9.2
	c0.6,2.3,1.3,5.2,2,8.9c0.5-3.3,1.2-6.3,1.9-9.1l2.2-8.9h6.4l2.5,10c0.6,2.3,1.1,5,1.6,8.1c0.6-3.4,1.2-6.1,1.7-7.9l2.8-10.1H218z"
	/>
<path d="M233.9,55.5c-0.5,0.3-1,0.5-1.4,0.7c-0.6,0.2-1.7,0.4-3.2,0.6c-1.6,0.2-2.7,0.5-3.4,0.9c-1,0.5-1.5,1.4-1.5,2.7
	c0,1.1,0.4,1.9,1.1,2.5c0.6,0.5,1.5,0.8,2.6,0.8c1.9,0,3.5-0.7,4.7-2c0.5-0.6,0.9-1.2,1-1.9c0.1-0.4,0.1-0.9,0.1-1.5V55.5z
	 M241.1,67.3h-6.8c-0.3-0.9-0.4-1.7-0.4-2.3c-2,2-4.7,3-8,3c-2.6,0-4.6-0.6-6-1.7c-1.6-1.3-2.5-3.2-2.5-5.6c0-3,1.4-5.1,4.2-6.3
	c1.1-0.5,3.2-0.9,6.3-1.3c2.8-0.4,4.5-0.7,5.1-1.1c0.5-0.3,0.8-0.9,0.8-1.8c0-2.1-1.4-3.2-4.3-3.2c-1.8,0-3.1,0.4-3.8,1.2
	c-0.5,0.5-0.8,1.3-0.9,2.4h-6.3c0.2-2.5,1.2-4.5,2.9-5.9c1.9-1.5,4.6-2.2,8.3-2.2c3.8,0,6.7,0.8,8.5,2.3c1.1,0.9,1.8,2.1,2,3.6
	c0.1,0.6,0.1,1.4,0.1,2.5c0,0.3,0,1.9-0.1,4.9c0,2.9,0,4.5,0,5c0,2.1,0.1,3.6,0.3,4.6C240.7,66,240.8,66.6,241.1,67.3"/>
<path d="M250.5,43.1v3.4c0.7-1,1.4-1.7,2.1-2.2c1.6-1.2,3.6-1.8,5.9-1.8c2.1,0,3.8,0.5,5.2,1.5c1.5,1.1,2.5,2.7,2.8,4.8
	c0.1,0.8,0.2,1.9,0.2,3.3v15.2h-6.6V53.4c0-1.6-0.1-2.7-0.4-3.4c-0.3-0.7-0.7-1.2-1.3-1.5c-0.7-0.4-1.5-0.6-2.4-0.6
	c-1.5,0-2.7,0.5-3.7,1.4c-0.7,0.7-1.2,1.6-1.4,2.7c-0.1,0.7-0.2,1.6-0.2,2.8v12.5h-6.6V43.1H250.5z"/>
<path d="M61.3,80.4h3.2v10.7c0,0.6,0,1.2,0.1,1.9c0.1,0.6,0.2,1.2,0.5,1.7c0.3,0.5,0.7,0.9,1.3,1.3c0.6,0.3,1.4,0.5,2.4,0.5
	c1,0,1.9-0.2,2.4-0.5c0.6-0.3,1-0.7,1.3-1.3c0.3-0.5,0.5-1.1,0.5-1.7c0.1-0.6,0.1-1.3,0.1-1.9V80.4h3.2v11.8c0,1.2-0.2,2.2-0.5,3.1
	c-0.4,0.9-0.9,1.6-1.5,2.2c-0.7,0.6-1.5,1-2.4,1.3c-0.9,0.3-2,0.4-3.1,0.4c-1.1,0-2.2-0.1-3.1-0.4c-0.9-0.3-1.7-0.7-2.4-1.3
	c-0.7-0.6-1.2-1.3-1.5-2.2c-0.4-0.9-0.5-1.9-0.5-3.1V80.4z"/>
<polygon points="94.1,80.4 94.1,93.9 94,93.9 85.6,80.4 82.2,80.4 82.2,98.8 85.3,98.8 85.3,85.2 85.4,85.2 93.7,98.8 97.1,98.8 
	97.1,80.4 "/>
<rect x="103.2" y="80.4" width="3.2" height="18.4"/>
<polygon points="123.3,80.4 118.6,94.9 118.6,94.9 113.9,80.4 110.6,80.4 116.7,98.8 120.3,98.8 126.6,80.4 "/>
<polygon points="130.6,80.4 130.6,98.8 144.1,98.8 144.1,96 133.9,96 133.9,90.6 143.1,90.6 143.1,88 133.9,88 133.9,83.2 
	143.9,83.2 143.9,80.4 "/>
<path d="M152.4,88.8h5.3c1,0,1.8-0.2,2.3-0.7c0.5-0.5,0.8-1.2,0.8-2.2c0-0.6-0.1-1.1-0.3-1.4c-0.2-0.4-0.4-0.7-0.7-0.9
	c-0.3-0.2-0.6-0.3-1-0.4c-0.4-0.1-0.8-0.1-1.2-0.1h-5.2V88.8z M149.2,80.4h8.8c2,0,3.6,0.4,4.6,1.3c1,0.9,1.5,2.1,1.5,3.7
	c0,0.9-0.1,1.6-0.4,2.2c-0.3,0.6-0.6,1-0.9,1.4c-0.3,0.4-0.7,0.6-1,0.8c-0.3,0.2-0.6,0.3-0.7,0.3V90c0.3,0,0.6,0.1,0.9,0.3
	c0.3,0.1,0.6,0.4,0.9,0.7c0.3,0.3,0.5,0.7,0.7,1.2c0.2,0.5,0.3,1.1,0.3,1.8c0,1.1,0.1,2.1,0.2,3c0.2,0.9,0.4,1.5,0.8,1.9h-3.5
	c-0.2-0.4-0.4-0.8-0.4-1.3c0-0.5-0.1-0.9-0.1-1.4c0-0.8-0.1-1.6-0.2-2.2c-0.1-0.6-0.3-1.1-0.6-1.5c-0.3-0.4-0.6-0.7-1.1-0.9
	c-0.5-0.2-1.1-0.3-1.8-0.3h-4.7v7.6h-3.2V80.4z"/>
<path d="M171.7,92.6c0,0.7,0.1,1.3,0.4,1.8c0.2,0.5,0.6,0.9,1,1.2c0.4,0.3,0.9,0.6,1.5,0.7c0.6,0.1,1.2,0.2,1.8,0.2
	c0.7,0,1.3-0.1,1.8-0.2c0.5-0.2,0.9-0.4,1.2-0.6c0.3-0.3,0.5-0.6,0.7-0.9c0.1-0.3,0.2-0.7,0.2-1c0-0.7-0.2-1.2-0.5-1.6
	c-0.3-0.3-0.7-0.6-1-0.7c-0.7-0.2-1.4-0.5-2.3-0.7c-0.9-0.2-1.9-0.5-3.2-0.8c-0.8-0.2-1.5-0.5-2-0.8c-0.5-0.3-0.9-0.7-1.3-1.1
	c-0.3-0.4-0.5-0.8-0.7-1.3c-0.1-0.5-0.2-0.9-0.2-1.4c0-0.9,0.2-1.7,0.6-2.4c0.4-0.7,0.9-1.2,1.5-1.7c0.6-0.5,1.4-0.8,2.2-1
	c0.8-0.2,1.6-0.3,2.5-0.3c1,0,1.9,0.1,2.7,0.4c0.9,0.3,1.6,0.6,2.2,1.1c0.6,0.5,1.2,1.1,1.5,1.8c0.4,0.7,0.6,1.6,0.6,2.5h-3.2
	c-0.1-1.2-0.5-2-1.2-2.5c-0.7-0.5-1.6-0.7-2.8-0.7c-0.4,0-0.8,0-1.2,0.1c-0.4,0.1-0.8,0.2-1.1,0.4c-0.3,0.2-0.6,0.4-0.8,0.7
	c-0.2,0.3-0.3,0.7-0.3,1.2c0,0.7,0.2,1.2,0.6,1.5c0.4,0.4,0.9,0.6,1.6,0.8c0.1,0,0.3,0.1,0.8,0.2c0.5,0.1,1,0.3,1.6,0.4
	c0.6,0.2,1.2,0.3,1.7,0.5c0.6,0.1,1,0.3,1.2,0.3c0.6,0.2,1.1,0.5,1.6,0.8c0.4,0.3,0.8,0.7,1.1,1.1c0.3,0.4,0.5,0.9,0.7,1.4
	c0.1,0.5,0.2,1,0.2,1.4c0,1-0.2,1.9-0.6,2.6c-0.4,0.7-1,1.3-1.7,1.8c-0.7,0.5-1.5,0.8-2.3,1c-0.9,0.2-1.8,0.3-2.7,0.3
	c-1,0-2-0.1-3-0.4c-0.9-0.3-1.7-0.7-2.4-1.2c-0.7-0.5-1.2-1.2-1.7-2.1c-0.4-0.8-0.6-1.8-0.6-3H171.7z"/>
<rect x="188.6" y="80.4" width="3.2" height="18.4"/>
<polygon points="196.2,80.4 196.2,83.2 202.1,83.2 202.1,98.8 205.3,98.8 205.3,83.2 211.1,83.2 211.1,80.4 "/>
<polygon points="226.8,80.4 222,88.6 217.1,80.4 213.4,80.4 220.3,91.6 220.3,98.8 223.5,98.8 223.5,91.6 230.4,80.4 "/>
<path class="st0" d="M0.1,80.4h12.5v-9.2c-4.3,1.3-8.5,3.1-12.5,5.3V80.4z"/>
<path class="st0" d="M0.1,69.4c0,0,5-1.5,12.5-2.9V18L0.1,5.3V69.4z"/>
<path class="st0" d="M16.1,65.9c2.4-0.4,4.9-0.7,7.6-1V18.5l-7.6-9.1V65.9z"/>
<path class="st0" d="M16.1,80.4h7.6V68.6c-2.5,0.4-5,1-7.6,1.6V80.4z"/>
<path class="st0" d="M27.1,80.4h8.2V67.2c-2.5,0.1-5.3,0.4-8.2,0.8V80.4z"/>
<path class="st0" d="M27.1,64.7c2.7-0.2,5.4-0.3,8.2-0.2V0l-8.2,12.6V64.7z"/>
<path class="st0" d="M38.7,23.1v41.5c3.2,0.1,6.4,0.5,9.5,1V14.4L38.7,23.1z"/>
<path class="st0" d="M48.3,67.4c0,0-3.8-0.4-9.5-0.3v0v13.3h9.5V67.4z"/>
<polyline class="st1" points="297,0 0.1,0 0.1,177.3 "/>
</svg>
